<svg id="Capa_1" data-name="Capa 1" xmlns="http://www.w3.org/2000/svg" viewBox="0 0 487.95 487.55"><defs><style>.cls-1{fill:#fff;}</style></defs><path class="cls-1" d="M481.8,453l-140-140.1A189.12,189.12,0,0,0,386,191.3C386,85.9,299.5.2,193.1.2S0,86,0,191.4,86.5,382.5,192.9,382.5a193.42,193.42,0,0,0,119.8-41.4L453.2,481.6c8.2,8.2,20.4,8.2,28.6,0S490,461.2,481.8,453ZM41,191.4c0-82.8,68.2-150.1,151.9-150.1s151.9,67.3,151.9,150.1S276.6,341.5,192.9,341.5,41,274.1,41,191.4Z" transform="translate(0 -0.2)"/></svg>